<svg width="64" height="64" viewBox="0 0 64 64" fill="none" xmlns="http://www.w3.org/2000/svg">
<path d="M0 8C0 3.58172 3.58172 0 8 0H56C60.4183 0 64 3.58172 64 8V56C64 60.4183 60.4183 64 56 64H8C3.58172 64 0 60.4183 0 56V8Z" fill="#070512"/>
<path fill-rule="evenodd" clip-rule="evenodd" d="M29 54.5V9.5L11 45.5L29 54.5ZM24.5 44.75L18.5 41.75L24.5 29.75V32V43.25V44.75Z" fill="url(#paint0_linear_33_857)"/>
<path d="M35 9.5V54.5L41 51.5V38.75V36.5L47 48.5L53 45.5L35 9.5Z" fill="url(#paint1_linear_33_857)"/>
<path d="M18.5 41.75L24.5 44.75V43.25L20 41L18.5 41.75Z" fill="url(#paint2_linear_33_857)"/>
<path d="M24.5 29.75L18.5 41.75L20 41L24.5 32V29.75Z" fill="url(#paint3_linear_33_857)"/>
<path d="M30.5 53.75V8.75L29 9.5V54.5L30.5 53.75Z" fill="url(#paint4_linear_33_857)"/>
<path d="M33.5 8.75V53.75L35 54.5V9.5L33.5 8.75Z" fill="url(#paint5_linear_33_857)"/>
<path d="M47 48.5L41 36.5V38.75L45.5 47.75L47 48.5Z" fill="url(#paint6_linear_33_857)"/>
<defs>
<linearGradient id="paint0_linear_33_857" x1="16.4986" y1="46.2948" x2="27.9331" y2="0.926158" gradientUnits="userSpaceOnUse">
<stop stop-color="#A9A4A4"/>
<stop offset="0.536458" stop-color="#EFEFEF"/>
<stop offset="1" stop-color="#CFCCCC"/>
</linearGradient>
<linearGradient id="paint1_linear_33_857" x1="8" y1="8" x2="23.1616" y2="55.0975" gradientUnits="userSpaceOnUse">
<stop stop-color="#CFB060"/>
<stop offset="0.442708" stop-color="#E5CFA1"/>
<stop offset="1" stop-color="#B2913C"/>
</linearGradient>
<linearGradient id="paint2_linear_33_857" x1="56" y1="55.36" x2="56.01" y2="8.4" gradientUnits="userSpaceOnUse">
<stop offset="0.270833" stop-color="#7E7D7D"/>
<stop offset="0.53125" stop-color="#C2BEBE"/>
<stop offset="1" stop-color="#7E7D7D"/>
</linearGradient>
<linearGradient id="paint3_linear_33_857" x1="56" y1="55.36" x2="56.01" y2="8.4" gradientUnits="userSpaceOnUse">
<stop offset="0.270833" stop-color="#7E7D7D"/>
<stop offset="0.53125" stop-color="#C2BEBE"/>
<stop offset="1" stop-color="#7E7D7D"/>
</linearGradient>
<linearGradient id="paint4_linear_33_857" x1="56" y1="55.36" x2="56.01" y2="8.4" gradientUnits="userSpaceOnUse">
<stop offset="0.270833" stop-color="#7E7D7D"/>
<stop offset="0.53125" stop-color="#C2BEBE"/>
<stop offset="1" stop-color="#7E7D7D"/>
</linearGradient>
<linearGradient id="paint5_linear_33_857" x1="31.7639" y1="55.4074" x2="31.7655" y2="8.17716" gradientUnits="userSpaceOnUse">
<stop stop-color="#94763F"/>
<stop offset="0.163878" stop-color="#BA914A"/>
<stop offset="0.336" stop-color="#AD8947"/>
</linearGradient>
<linearGradient id="paint6_linear_33_857" x1="31.7639" y1="55.4074" x2="31.7655" y2="8.17716" gradientUnits="userSpaceOnUse">
<stop stop-color="#94763F"/>
<stop offset="0.163878" stop-color="#BA914A"/>
<stop offset="0.336" stop-color="#AD8947"/>
</linearGradient>
</defs>
</svg>
