<svg width="24" height="24" viewBox="0 0 24 24" fill="none" xmlns="http://www.w3.org/2000/svg">
<g clip-path="url(#clip0_1470_5182)">
<path d="M22 16H2V21.5C2 21.7761 2.22386 22 2.5 22H21.5C21.7761 22 22 21.7761 22 21.5V16ZM13 19C13 18.4477 12.5523 18 12 18H6C5.44772 18 5 18.4477 5 19C5 19.5523 5.44772 20 6 20H12C12.5523 20 13 19.5523 13 19ZM19 19C19 18.4477 18.5523 18 18 18C17.4477 18 17 18.4477 17 19C17 19.5523 17.4477 20 18 20C18.5523 20 19 19.5523 19 19ZM5.23438 2C4.48799 2.00011 3.85556 2.54918 3.75 3.28809L2.07617 15H21.9238L20.25 3.28809C20.1444 2.54918 19.512 2.00011 18.7656 2H5.23438ZM14 19C14 20.1046 13.1046 21 12 21H6C4.89543 21 4 20.1046 4 19C4 17.8954 4.89543 17 6 17H12C13.1046 17 14 17.8954 14 19ZM20 19C20 20.1046 19.1046 21 18 21C16.8954 21 16 20.1046 16 19C16 17.8954 16.8954 17 18 17C19.1046 17 20 17.8954 20 19ZM23 21.5C23 22.3284 22.3284 23 21.5 23H2.5C1.67157 23 1 22.3284 1 21.5V15.4648L1.00488 15.4297L2.75977 3.14648C2.9357 1.91493 3.99034 1.00011 5.23438 1H18.7656C20.0097 1.00011 21.0643 1.91493 21.2402 3.14648L22.9951 15.4297L23 15.4648V21.5Z" fill="black"/>
</g>
<defs>
<clipPath id="clip0_1470_5182">
<rect width="24" height="24" fill="white"/>
</clipPath>
</defs>
</svg>
